<?xml version="1.0" encoding="UTF-8"?>
<svg id="Layer_1" data-name="Layer 1" xmlns="http://www.w3.org/2000/svg" viewBox="0 0 360 360">
  <defs>
    <style>
      .cls-1 {
        fill: #3b4587;
      }

      .cls-2 {
        font-family: ProximaNova-Black, 'Proxima Nova';
        font-size: 65px;
        font-weight: 800;
        letter-spacing: 0em;
      }

      .cls-3 {
        fill: #252a5e;
      }

      .cls-4 {
        fill: #5a69a5;
      }

      .cls-5 {
        fill: #fff;
      }

      .cls-6 {
        font-family: OpenSans-Light, 'Open Sans';
        font-size: 57px;
        font-weight: 300;
        letter-spacing: 0em;
      }
    </style>
  </defs>
  <text class="cls-5" transform="translate(39.2 162.27)"><tspan class="cls-2"><tspan x="0" y="0">Present</tspan></tspan><tspan class="cls-6"><tspan x="0" y="50">Levels </tspan></tspan></text>
  <path class="cls-4" d="M206.7,183.27h18c4.97,0,9,4.03,9,9v20h-36v-20c0-4.97,4.03-9,9-9Z"/>
  <path class="cls-3" d="M284.69,122.92h18c4.97,0,9,4.03,9,9v80.35h-36v-80.35c0-4.97,4.03-9,9-9Z"/>
  <path class="cls-1" d="M245.7,169.74h18c4.97,0,9,4.03,9,9v33.53h-36v-33.53c0-4.97,4.03-9,9-9Z"/>
</svg>